<svg xmlns="http://www.w3.org/2000/svg" xmlns:xlink="http://www.w3.org/1999/xlink" version="1.1" x="0px" y="0px" viewBox="0 0 100 125" style="enable-background:new 0 0 100 100;" xml:space="preserve"><g><path d="M86,20H14c-1.7,0-3,1.3-3,3v54c0,1.7,1.3,3,3,3h12v12c0,1.2,0.7,2.3,1.9,2.8c0.4,0.1,0.7,0.2,1.1,0.2   c0.8,0,1.6-0.3,2.2-0.9L44.6,80H86c1.7,0,3-1.3,3-3V23C89,21.3,87.7,20,86,20z M83,74H43.3c-0.8,0-1.6,0.3-2.2,0.9L32,84.5V77   c0-1.7-1.3-3-3-3H17V26h66V74z"/></g><text x="0" y="115" fill="#000000" font-size="5px" font-weight="bold" font-family="'Helvetica Neue', Helvetica, Arial-Unicode, Arial, Sans-serif">Created by praveen patchu</text><text x="0" y="120" fill="#000000" font-size="5px" font-weight="bold" font-family="'Helvetica Neue', Helvetica, Arial-Unicode, Arial, Sans-serif">from the Noun Project</text></svg>