<svg xmlns="http://www.w3.org/2000/svg" xmlns:xlink="http://www.w3.org/1999/xlink" version="1.1" x="0px" y="0px" viewBox="0 0 512 640" enable-background="new 0 0 512 512" xml:space="preserve"><path d="M256,2C115.7,2,2,115.7,2,256c0,140.3,113.7,254,254,254s254-113.7,254-254C510,115.7,396.3,2,256,2z M216.4,52.8h79.1  c6,0,10.7,5.2,10.1,11.2l-23.4,233.7c-0.5,5.2-4.9,9.2-10.1,9.2h-32.4c-5.2,0-9.6-4-10.1-9.2L206.3,64  C205.7,58,210.4,52.8,216.4,52.8z M256,459.2c-28.1,0-50.8-22.7-50.8-50.8c0-28.1,22.7-50.8,50.8-50.8c28.1,0,50.8,22.7,50.8,50.8  C306.8,436.5,284.1,459.2,256,459.2z"/><text x="0" y="527" fill="#000000" font-size="5px" font-weight="bold" font-family="'Helvetica Neue', Helvetica, Arial-Unicode, Arial, Sans-serif">Created by ProSymbols</text><text x="0" y="532" fill="#000000" font-size="5px" font-weight="bold" font-family="'Helvetica Neue', Helvetica, Arial-Unicode, Arial, Sans-serif">from the Noun Project</text></svg>